<?xml version="1.0" encoding="UTF-8" standalone="no"?>
<!-- Created with Inkscape (http://www.inkscape.org/) -->

<svg
   xmlns:dc="http://purl.org/dc/elements/1.1/"
   xmlns:cc="http://creativecommons.org/ns#"
   xmlns:rdf="http://www.w3.org/1999/02/22-rdf-syntax-ns#"
   xmlns:svg="http://www.w3.org/2000/svg"
   xmlns="http://www.w3.org/2000/svg"
   xmlns:sodipodi="http://sodipodi.sourceforge.net/DTD/sodipodi-0.dtd"
   xmlns:inkscape="http://www.inkscape.org/namespaces/inkscape"
   width="79.375mm"
   height="79.368439mm"
   viewBox="0 0 79.375 79.368439"
   version="1.1"
   id="svg42544"
   inkscape:version="0.92.4 (5da689c313, 2019-01-14)"
   sodipodi:docname="Norrkoping_Dolphins_logo.svg">
  <defs
     id="defs42538" />
  <sodipodi:namedview
     id="base"
     pagecolor="#ffffff"
     bordercolor="#666666"
     borderopacity="1.0"
     inkscape:pageopacity="0.0"
     inkscape:pageshadow="2"
     inkscape:zoom="0.98994949"
     inkscape:cx="174.28572"
     inkscape:cy="227.13043"
     inkscape:document-units="mm"
     inkscape:current-layer="layer1"
     showgrid="false"
     inkscape:pagecheckerboard="true"
     inkscape:window-width="1366"
     inkscape:window-height="705"
     inkscape:window-x="-8"
     inkscape:window-y="-8"
     inkscape:window-maximized="1" />
  <metadata
     id="metadata42541">
    <rdf:RDF>
      <cc:Work
         rdf:about="">
        <dc:format>image/svg+xml</dc:format>
        <dc:type
           rdf:resource="http://purl.org/dc/dcmitype/StillImage" />
        <dc:title></dc:title>
      </cc:Work>
    </rdf:RDF>
  </metadata>
  <g
     inkscape:label="Layer 1"
     inkscape:groupmode="layer"
     id="layer1"
     transform="translate(-46.491069,-129.55982)">
    <path
       inkscape:connector-curvature="0"
       id="path51869"
       d="m 68.351549,140.91537 c 11.218687,-7.9952 28.578,-7.78008 38.867771,-0.0554 1.60035,1.20598 5.39749,1.56449 8.16142,2.02732 0.26401,0.0237 0.48238,0.10762 0.6649,0.22493 -7.27487,-8.30485 -17.959019,-13.5524 -29.868696,-13.5524 -13.663207,0 -25.716288,6.90332 -32.851009,17.41798 3.031197,-3.73847 8.099491,-7.68556 15.025614,-6.06239"
       style="clip-rule:nonzero;fill:#7a7578;fill-opacity:1;fill-rule:nonzero;stroke:none;stroke-width:0.83439416" />
    <path
       style="fill:#211e1e;fill-opacity:1;fill-rule:nonzero;stroke:none;stroke-width:0.83439416"
       d="m 62.191374,146.87998 c -3.956856,1.32329 -7.630153,0.15634 -10.866682,3.37343 -3.080093,5.63867 -4.833623,12.11176 -4.833623,18.99225 0,21.91587 17.769985,39.6826 39.685875,39.6826 0.348751,0 0.694242,-0.002 1.039731,-0.0118 0.107569,-1.1147 0.440017,-4.27302 0.941955,-6.08196 -22.857835,1.18642 -45.780865,-27.45679 -25.967256,-55.95332"
       id="path51873"
       inkscape:connector-curvature="0" />
    <path
       inkscape:connector-curvature="0"
       id="path51875"
       d="m 125.86607,169.24566 c 0,-9.72918 -3.5038,-18.63699 -9.31522,-25.54029 0.37157,0.8409 -0.0586,2.02405 -1.3233,2.05991 0,0 -21.5541,0.50845 -31.521197,6.84138 4.426203,4.13938 3.353872,13.16126 -1.251592,15.30266 0.495422,-5.7658 -4.797766,-7.66925 -3.340831,-11.68152 -15.556895,14.59212 -3.875376,37.84109 10.82105,41.25362 6.166691,-10.04858 17.97532,-5.87987 21.75292,2.16095 8.66661,-7.27813 14.17817,-18.19371 14.17817,-30.39671"
       style="clip-rule:nonzero;fill:#f37014;fill-opacity:1;fill-rule:nonzero;stroke:none;stroke-width:0.83439416" />
    <path
       style="fill:#211e1e;fill-opacity:1;fill-rule:nonzero;stroke:none;stroke-width:0.83439416"
       d="m 94.038497,208.14928 c 6.583893,-1.32329 12.577843,-4.27626 17.545103,-8.4189 -15.292889,-8.97626 -13.213419,5.54742 -17.545103,8.4189"
       id="path51879"
       inkscape:connector-curvature="0" />
    <path
       style="fill:#ffffff;fill-opacity:1;fill-rule:nonzero;stroke:none;stroke-width:0.83439416"
       d="m 89.93498,197.48142 c -14.696426,-3.41253 -26.377945,-26.6615 -10.82105,-41.25036 -1.456935,4.00901 3.836253,5.91246 3.344095,11.67826 4.6022,-2.1414 5.674531,-11.16328 1.248328,-15.30266 9.967097,-6.33293 31.521197,-6.84138 31.521197,-6.84138 1.26463,-0.0359 1.69487,-1.21901 1.3233,-2.05991 -0.16623,-0.19891 -0.33572,-0.39764 -0.50521,-0.59319 -0.18252,-0.11732 -0.40089,-0.19892 -0.6649,-0.22494 -2.76393,-0.46282 -6.56107,-0.82134 -8.16142,-2.02731 -10.289771,-7.72467 -27.645823,-7.93978 -38.867771,0.0553 -6.926123,-1.62317 -11.994417,2.32392 -15.025614,6.0624 -0.720325,1.05277 -1.38849,2.14792 -2.004507,3.27565 3.236541,-3.217 6.91309,-2.05014 10.8732,-3.37343 -19.816863,28.49652 3.106167,57.13971 25.964002,55.95329 -0.501938,1.80894 -0.834395,4.96726 -0.941955,6.08196 2.330436,-0.0587 4.608726,-0.32269 6.821822,-0.76595 4.331684,-2.87149 2.252214,-17.39517 17.545103,-8.4189 0.0326,-0.0293 0.0652,-0.0587 0.10104,-0.088 -3.77434,-8.04082 -15.582969,-12.20953 -21.74966,-2.16095"
       id="path51881"
       inkscape:connector-curvature="0" />
  </g>
</svg>
